<svg width="1440" height="989" viewBox="0 0 1440 989" fill="none" xmlns="http://www.w3.org/2000/svg">
<path d="M1475.06 930.531H-36V931.287H1475.06V930.531Z" fill="#EBEBEB"/>
<path d="M1323.65 979.156H1223.55V979.912H1323.65V979.156Z" fill="#EBEBEB"/>
<path fill-rule="evenodd" clip-rule="evenodd" d="M191.227 147.108C191.181 149.486 188.67 153.443 184.633 157.922C181.71 161.166 178.307 164.302 175.454 166.415L175.277 166.546L175.394 167.071C176.088 170.118 176.994 173.43 176.652 176.77C175.821 184.877 169.493 194.023 161.131 198.516C158.081 200.231 154.615 201.288 151.058 201.748L150.719 201.79C148.068 202.103 145.531 202.051 143.98 201.731C137.962 200.488 132.866 196.272 129.786 190.17C129.775 190.15 129.767 190.129 129.761 190.107C129.356 190.339 128.81 190.598 128.561 190.683L127.878 190.914C120.52 193.394 113.226 195.469 110.246 194.174C109.112 193.681 108.724 192.733 109.198 191.459C109.659 190.221 110.938 188.627 113.083 186.642L113.2 186.533C115.233 184.666 119.746 181.255 126.74 176.299L126.742 176.208C127.083 161.524 138.466 150.329 152.774 151.243C157.15 151.523 160.635 153.081 162.376 154.038L163.141 153.626C170.321 149.779 176.082 147.075 180.478 145.457C187.706 142.795 191.281 144.039 191.227 147.108ZM180.713 147.034C172.631 150.01 159.856 156.704 142.071 167.472L141.53 167.8C127.681 176.201 118.511 182.583 113.661 187.037L113.423 187.258L113.196 187.471C109.556 190.918 108.911 192.848 110.518 193.546C113.269 194.742 120.656 192.727 127.89 190.349L128.561 190.127C129.206 189.913 129.634 189.79 129.899 189.733C129.91 189.725 129.923 189.718 129.936 189.711C130.027 189.665 130.128 189.663 130.215 189.698C130.234 189.701 130.247 189.707 130.253 189.715C130.312 189.747 130.362 189.797 130.395 189.862C133.385 195.785 138.313 199.394 144.118 200.594C145.625 200.905 148.167 200.95 150.812 200.623L150.971 200.602C154.445 200.153 157.829 199.588 160.803 197.917C168.974 193.525 175.166 184.577 175.973 176.7C176.318 173.334 175.877 170.029 174.707 166.954C174.611 167.021 174.515 167.088 174.42 167.153C174.24 167.276 174.308 167.077 174.621 166.556C174.638 166.489 174.675 166.427 174.729 166.38L174.826 166.227C174.859 166.173 174.895 166.118 174.932 166.06L175.337 165.718C179.149 162.487 182.079 159.735 184.127 157.464L184.361 157.203C188.149 152.955 190.503 149.203 190.542 147.095C190.585 144.783 187.541 144.52 180.713 147.034ZM146.441 190.286C147.356 193.091 145.971 194.895 143.532 194.988C141.279 195.074 139.227 193.651 139.331 191.63C139.422 189.882 140.616 188.014 142.086 187.328C143.864 186.498 145.532 187.505 146.441 190.286ZM142.446 188.103C141.27 188.652 140.258 190.235 140.184 191.674C140.11 193.107 141.69 194.203 143.5 194.134C145.392 194.061 146.362 192.797 145.63 190.552C144.867 188.215 143.706 187.515 142.446 188.103ZM165.06 184.571C166.228 186.784 165.922 188.957 164.125 189.931L164.075 189.958L164.049 189.984C161.64 192.375 158.63 192.665 156.667 190.932L156.6 190.871C154.339 188.796 154.877 185.23 158.475 182.435C160.79 180.636 163.619 181.842 165.06 184.571ZM158.923 183.014C155.657 185.552 155.198 188.591 157.094 190.331C158.453 191.579 160.462 191.648 162.339 190.437L162.375 190.412L162.361 190.409C162.232 190.375 162.127 190.27 162.098 190.133L162.092 190.098C162.068 189.897 162.212 189.715 162.412 189.691C162.871 189.637 163.269 189.526 163.607 189.367L163.653 189.344L163.709 189.286C163.929 189.054 164.144 188.802 164.352 188.528L164.421 188.436C164.5 188.331 164.623 188.28 164.744 188.29L164.754 188.291L164.759 188.282C165.197 187.414 165.093 186.239 164.451 184.988L164.413 184.914C163.16 182.541 160.818 181.542 158.923 183.014ZM180.673 156.715C180.485 157.384 179.913 158.302 179.036 159.39C177.507 161.285 175.211 163.492 173.204 165.001L173.649 164.51C173.645 164.506 173.641 164.501 173.638 164.495L173.484 164.212C172.48 162.375 171.361 160.563 169.552 159.085C164.871 161.019 159.504 163.663 154.614 166.427L153.011 167.335C141.207 174.035 134.997 178.046 128.356 182.978C128.607 184.109 128.923 185.213 129.301 186.282C129.361 186.45 128.585 187.078 128.443 187C127.118 187.89 125.044 188.536 123.863 188.57C122.712 188.602 122.047 188.135 122.389 187.204C122.676 186.426 123.755 185.315 125.698 183.826L125.92 183.658L126.367 183.321C133.679 177.835 140.917 173.384 154.278 165.831L154.838 165.517C164.001 160.391 174.613 155.773 179.473 155.347C180.473 155.26 180.926 155.814 180.673 156.715ZM127.467 183.641L125.935 184.8C124.569 185.838 123.583 186.606 123.051 187.099L123.012 187.135C122.362 187.746 123.098 187.907 123.843 187.886C124.973 187.854 126.702 186.996 128.167 186.215C127.896 185.375 127.663 184.516 127.467 183.641ZM151.43 179.928C151.612 179.974 151.723 180.16 151.677 180.343C151.63 180.526 151.445 180.637 151.262 180.591C150.344 180.357 149.802 180.447 149.626 180.694C149.509 180.859 149.574 181.139 149.792 181.318C149.963 181.458 150.19 181.524 150.346 181.49C150.482 181.461 150.558 181.356 150.558 181.093C150.558 180.904 150.711 180.751 150.899 180.751C151.088 180.751 151.24 180.904 151.24 181.093C151.24 181.664 150.955 182.057 150.491 182.159C150.118 182.24 149.683 182.112 149.36 181.847C148.883 181.456 148.727 180.781 149.07 180.298C149.446 179.768 150.269 179.632 151.43 179.928ZM136.437 178.672C136.964 178.83 137.19 179.235 137.262 179.843L137.269 179.909L137.278 180.009C137.279 180.025 137.28 180.042 137.281 180.061L137.299 180.408L137.304 180.486C137.307 180.52 137.31 180.548 137.314 180.574L137.323 180.626L137.328 180.649L137.338 180.657C137.443 180.761 137.471 180.923 137.403 181.056L137.386 181.087C137.283 181.246 137.072 181.291 136.914 181.189C136.696 181.048 136.646 180.903 136.62 180.487L136.598 180.08C136.596 180.043 136.593 180.011 136.589 179.975C136.551 179.577 136.454 179.391 136.241 179.327C135.645 179.148 135.303 179.331 135.195 179.73C135.098 180.086 135.238 180.46 135.483 180.564L135.544 180.587C135.704 180.656 135.789 180.836 135.735 181.005C135.678 181.185 135.486 181.285 135.306 181.227C134.656 181.02 134.348 180.246 134.536 179.551C134.747 178.775 135.479 178.384 136.437 178.672ZM161.061 173.435C162.007 174.767 161.831 176.461 160.314 177.227C160.146 177.312 159.941 177.245 159.856 177.076C159.771 176.907 159.839 176.702 160.007 176.617C161.105 176.062 161.23 174.853 160.505 173.831C159.801 172.839 158.82 172.73 158.146 173.802C157.432 174.939 157.484 175.606 157.998 175.907C158.407 176.145 159.064 176.095 159.245 175.9L159.262 175.879C159.372 175.725 159.585 175.689 159.738 175.798C159.892 175.908 159.928 176.122 159.818 176.275C159.439 176.809 158.356 176.908 157.654 176.498C156.756 175.973 156.67 174.868 157.569 173.438C158.531 171.907 160.1 172.081 161.061 173.435ZM146.911 171.474C147.088 171.474 147.234 171.61 147.25 171.783L147.252 171.816C147.252 171.876 147.308 171.943 147.508 172.091L147.698 172.227C147.904 172.378 148.004 172.472 148.098 172.621C148.313 172.962 148.435 173.309 148.435 173.717C148.435 174.762 146.868 176.184 145.158 176.817C143.107 177.575 141.427 177.013 140.97 174.904C140.93 174.72 141.047 174.537 141.231 174.497C141.415 174.457 141.597 174.574 141.637 174.759C141.992 176.395 143.217 176.805 144.921 176.175C146.393 175.631 147.752 174.397 147.752 173.717C147.752 173.454 147.673 173.227 147.521 172.986L147.5 172.957C147.466 172.914 147.411 172.866 147.314 172.793L147.088 172.631C146.714 172.354 146.569 172.168 146.569 171.816C146.569 171.627 146.722 171.474 146.911 171.474ZM148.513 152.517L148.297 152.542C136.651 153.945 127.914 163.28 127.437 175.806L128.687 174.925C132.274 172.402 136.437 169.52 141.177 166.279L142.1 165.72C144.858 164.053 147.494 162.484 150.011 161.012C149.965 160.932 149.952 160.833 149.983 160.737C150.159 160.199 150.322 159.838 150.62 159.475C151.552 158.342 152.83 157.788 153.735 158.5C153.824 158.57 153.869 158.675 153.865 158.781L154.669 158.321C157.201 156.877 159.597 155.543 161.858 154.318L160.975 154.066C159.665 153.696 158.036 153.258 156.413 152.921C156.428 154.003 155.619 154.867 154.276 155.462C153.134 155.967 151.646 156.239 150.588 156.176C148.609 156.058 147.495 154.318 148.513 152.517ZM168.943 167.37C169.778 169.657 169.089 171.736 167.004 171.723C164.032 171.703 161.131 169.103 161.6 166.774C161.809 165.735 162.588 164.816 163.944 164.358C166.109 163.625 168.093 165.043 168.943 167.37ZM164.162 165.006C163.042 165.385 162.431 166.106 162.269 166.91C161.897 168.758 164.423 171.022 167.008 171.039C168.489 171.048 168.998 169.512 168.302 167.606C167.565 165.588 165.918 164.412 164.162 165.006ZM139.065 156.909L139.09 156.944L139.254 157.206C139.334 157.339 139.407 157.469 139.475 157.61C140.231 159.159 140.212 161.189 138.932 164.007C138.353 165.284 136.876 167 135.587 168.024C133.941 169.331 132.712 169.628 131.245 169.467L130.809 169.415L130.756 169.41C130.727 169.408 130.709 169.408 130.688 169.409L130.658 169.41C130.636 169.411 130.628 169.41 130.626 169.407V169.405L130.616 169.423C130.517 169.565 130.324 169.611 130.17 169.525C130.005 169.434 129.946 169.225 130.038 169.06C130.16 168.839 130.365 168.739 130.626 168.727C130.695 168.724 130.768 168.726 130.855 168.733L130.957 168.743L131.239 168.777C132.575 168.94 133.638 168.699 135.163 167.488C136.374 166.526 137.782 164.89 138.311 163.724C139.508 161.087 139.526 159.27 138.862 157.911C138.818 157.82 138.772 157.734 138.722 157.648L138.65 157.528L138.507 157.301C138.407 157.141 138.455 156.93 138.615 156.83C138.765 156.736 138.959 156.772 139.065 156.909ZM179.533 156.029C177.351 156.22 173.931 157.3 169.987 158.907L170.103 159.009C171.2 159.995 173.414 162.335 174.107 164.004L174.798 163.237C176.501 161.338 177.737 159.913 178.505 158.96L178.66 158.765C179.395 157.831 179.869 157.05 180.016 156.53L180.036 156.451C180.127 156.075 180.022 155.986 179.533 156.029ZM146.852 157.14C147.702 157.551 148.046 158.468 147.488 159.298C147.382 159.455 147.17 159.496 147.014 159.39C146.857 159.285 146.816 159.072 146.922 158.916C147.229 158.459 147.055 157.998 146.555 157.756C146.028 157.5 145.451 157.647 145.153 158.205C144.878 158.718 144.859 159.413 145.078 159.869C145.271 160.269 145.551 160.345 145.978 160.023C146.129 159.909 146.343 159.939 146.457 160.091C146.57 160.241 146.54 160.456 146.389 160.569C145.61 161.157 144.839 160.946 144.464 160.166C144.149 159.512 144.174 158.587 144.551 157.881C145.032 156.982 146.012 156.733 146.852 157.14ZM151.146 159.91C150.987 160.104 150.874 160.308 150.768 160.57C151.648 160.058 152.512 159.558 153.362 159.069L153.337 159.055L153.313 159.038C152.792 158.628 151.874 159.026 151.146 159.91ZM149.691 152.413L149.392 152.434L149.372 152.459C148.193 153.953 148.647 155.166 150.258 155.338C151.415 155.462 154.487 154.602 154.848 154.3C155.199 154.006 155.643 153.329 155.711 152.781C154.668 152.585 153.649 152.441 152.739 152.394C151.809 152.346 150.892 152.347 149.991 152.395L149.691 152.413Z" fill="#DADADA"/>
<path d="M180.665 147.131C187.938 144.46 187.771 145.253 180.902 147.775C172.769 150.761 142.07 169.472 142.07 169.472C128.136 177.901 127.094 176.6 140.6 168.398L141.432 167.893C141.589 167.798 156.966 158.101 167.954 152.913C169.19 152.329 179.837 147.435 180.665 147.131Z" fill="white"/>
<path d="M964.985 987.383H938.723V988.138H964.985V987.383Z" fill="#EBEBEB"/>
<path d="M1220.53 951.117H1162.54V951.873H1220.53V951.117Z" fill="#EBEBEB"/>
<path d="M253.064 956.188H122.539V956.943H253.064V956.188Z" fill="#EBEBEB"/>
<path d="M299.122 956.188H279.992V956.943H299.122V956.188Z" fill="#EBEBEB"/>
<path d="M644.428 968.945H361.316V969.701H644.428V968.945Z" fill="#EBEBEB"/>
<path d="M1162.39 107.427L1178.53 110.087L1162.39 112.746L1159.7 128.884L1157.04 112.746L1140.9 110.087L1157.04 107.427L1159.7 91.2891L1162.39 107.427Z" fill="#EBEBEB"/>
<path d="M1163.48 110.086L1173.03 123.384L1159.7 113.864L1146.4 123.384L1155.95 110.086L1146.4 96.7891L1159.7 106.339L1173.03 96.7891L1163.48 110.086Z" fill="#EBEBEB"/>
<path d="M1163.44 110.091C1163.44 111.085 1163.05 112.038 1162.35 112.741C1161.64 113.444 1160.69 113.839 1159.7 113.839C1158.7 113.839 1157.75 113.444 1157.05 112.741C1156.34 112.038 1155.95 111.085 1155.95 110.091C1155.95 109.097 1156.34 108.144 1157.05 107.441C1157.75 106.739 1158.7 106.344 1159.7 106.344C1160.69 106.344 1161.64 106.739 1162.35 107.441C1163.05 108.144 1163.44 109.097 1163.44 110.091Z" fill="#E0E0E0"/>
<path d="M1275.54 731.918L1291.7 734.578L1275.54 737.237L1272.88 753.375L1270.22 737.237L1254.08 734.578L1270.22 731.918L1272.88 715.75L1275.54 731.918Z" fill="#EBEBEB"/>
<path d="M1276.65 734.579L1286.17 747.876L1272.88 738.326L1259.58 747.876L1269.13 734.579L1259.58 721.281L1272.88 730.801L1286.17 721.281L1276.65 734.579Z" fill="#EBEBEB"/>
<path d="M1276.62 734.576C1276.62 735.317 1276.4 736.041 1275.99 736.657C1275.58 737.274 1275 737.754 1274.31 738.038C1273.63 738.321 1272.87 738.396 1272.15 738.251C1271.42 738.106 1270.75 737.749 1270.23 737.225C1269.7 736.701 1269.35 736.034 1269.2 735.307C1269.06 734.58 1269.13 733.826 1269.41 733.141C1269.7 732.457 1270.18 731.871 1270.79 731.46C1271.41 731.048 1272.14 730.828 1272.88 730.828C1273.87 730.828 1274.82 731.223 1275.53 731.926C1276.23 732.629 1276.62 733.582 1276.62 734.576Z" fill="#E0E0E0"/>
<path d="M380.78 964.59L396.918 967.25L380.78 969.909L378.121 986.047L375.461 969.909L359.293 967.25L375.461 964.59L378.121 948.422L380.78 964.59Z" fill="#EBEBEB"/>
<path d="M381.869 967.25L391.419 980.548L378.121 970.998L364.824 980.548L374.344 967.25L364.824 953.953L378.121 963.473L391.419 953.953L381.869 967.25Z" fill="#EBEBEB"/>
<path d="M381.839 967.255C381.839 967.998 381.618 968.724 381.205 969.34C380.792 969.957 380.205 970.438 379.518 970.72C378.832 971.003 378.077 971.075 377.349 970.928C376.621 970.781 375.954 970.421 375.431 969.894C374.908 969.367 374.553 968.697 374.412 967.968C374.271 967.239 374.35 966.484 374.638 965.8C374.926 965.116 375.411 964.533 376.031 964.125C376.652 963.717 377.379 963.502 378.121 963.508C379.11 963.516 380.055 963.914 380.752 964.616C381.448 965.318 381.839 966.267 381.839 967.255Z" fill="#E0E0E0"/>
<path d="M958.699 40.7006L974.867 43.36L958.699 46.0195L956.04 62.1878L953.38 46.0195L937.242 43.36L953.38 40.7006L956.04 24.5625L958.699 40.7006Z" fill="#EBEBEB"/>
<path d="M959.817 43.3598L969.337 56.6571L956.04 47.1374L942.742 56.6571L952.292 43.3598L942.742 30.0625L956.04 39.6124L969.337 30.0625L959.817 43.3598Z" fill="#EBEBEB"/>
<path d="M959.788 43.3646C959.788 44.3585 959.393 45.3117 958.69 46.0144C957.987 46.7172 957.034 47.112 956.04 47.112C955.047 47.112 954.093 46.7172 953.391 46.0144C952.688 45.3117 952.293 44.3585 952.293 43.3646C952.293 42.3707 952.688 41.4176 953.391 40.7148C954.093 40.012 955.047 39.6172 956.04 39.6172C957.034 39.6172 957.987 40.012 958.69 40.7148C959.393 41.4176 959.788 42.3707 959.788 43.3646Z" fill="#E0E0E0"/>
<path d="M1085.5 319.677L1101.64 322.337L1085.5 324.996L1082.84 341.134L1080.18 324.996L1064.05 322.337L1080.18 319.677L1082.84 303.539L1085.5 319.677Z" fill="#EBEBEB"/>
<path d="M1086.6 322.336L1096.15 335.634L1082.85 326.114L1069.55 335.634L1079.1 322.336L1069.55 309.039L1082.85 318.589L1096.15 309.039L1086.6 322.336Z" fill="#EBEBEB"/>
<path d="M1086.59 322.333C1086.59 323.074 1086.37 323.799 1085.96 324.415C1085.55 325.032 1084.96 325.512 1084.28 325.796C1083.59 326.079 1082.84 326.153 1082.11 326.009C1081.39 325.864 1080.72 325.507 1080.2 324.983C1079.67 324.459 1079.31 323.791 1079.17 323.064C1079.03 322.337 1079.1 321.584 1079.38 320.899C1079.67 320.215 1080.15 319.629 1080.76 319.217C1081.38 318.806 1082.1 318.586 1082.85 318.586C1083.84 318.594 1084.79 318.991 1085.49 319.692C1086.19 320.393 1086.58 321.342 1086.59 322.333Z" fill="#E0E0E0"/>
<path d="M1083.6 933.739L1099.74 936.398L1083.6 939.058L1080.94 955.196L1078.28 939.058L1062.14 936.398L1078.28 933.739L1080.94 917.57L1083.6 933.739Z" fill="#EBEBEB"/>
<path d="M1084.69 936.399L1094.24 949.696L1080.94 940.146L1067.64 949.696L1077.16 936.399L1067.64 923.102L1080.94 932.621L1094.24 923.102L1084.69 936.399Z" fill="#EBEBEB"/>
<path d="M1084.69 936.396C1084.69 937.39 1084.3 938.343 1083.59 939.046C1082.89 939.748 1081.94 940.143 1080.94 940.143C1079.95 940.143 1079 939.748 1078.29 939.046C1077.59 938.343 1077.2 937.39 1077.2 936.396C1077.2 935.402 1077.59 934.449 1078.29 933.746C1079 933.043 1079.95 932.648 1080.94 932.648C1081.94 932.648 1082.89 933.043 1083.59 933.746C1084.3 934.449 1084.69 935.402 1084.69 936.396Z" fill="#E0E0E0"/>
<path d="M145.056 588.096L158.747 590.363L145.056 592.599L142.79 606.289L140.553 592.599L126.863 590.363L140.553 588.096L142.79 574.406L145.056 588.096Z" fill="#EBEBEB"/>
<path d="M145.992 590.366L154.061 601.639L142.788 593.54L131.516 601.639L139.615 590.366L131.516 579.094L142.788 587.163L154.061 579.094L145.992 590.366Z" fill="#EBEBEB"/>
<path d="M145.96 590.362C145.99 590.995 145.83 591.623 145.5 592.164C145.17 592.705 144.686 593.135 144.11 593.399C143.533 593.662 142.891 593.747 142.266 593.642C141.64 593.538 141.061 593.248 140.602 592.811C140.143 592.374 139.825 591.809 139.69 591.19C139.555 590.57 139.608 589.925 139.843 589.336C140.079 588.747 140.485 588.243 141.009 587.887C141.534 587.531 142.153 587.34 142.787 587.34C143.196 587.319 143.605 587.382 143.99 587.525C144.374 587.668 144.725 587.887 145.022 588.17C145.319 588.452 145.555 588.792 145.716 589.169C145.878 589.546 145.961 589.952 145.96 590.362Z" fill="#E0E0E0"/>
<path d="M1139.78 598.285L1153.47 600.551L1139.78 602.818L1137.55 616.508L1135.28 602.818L1121.59 600.551L1135.28 598.285L1137.55 584.625L1139.78 598.285Z" fill="#EBEBEB"/>
<path d="M1140.72 600.546L1148.82 611.818L1137.55 603.719L1126.27 611.818L1134.34 600.546L1126.27 589.273L1137.55 597.373L1148.82 589.273L1140.72 600.546Z" fill="#EBEBEB"/>
<path d="M1137.54 603.721C1139.3 603.721 1140.72 602.301 1140.72 600.548C1140.72 598.796 1139.3 597.375 1137.54 597.375C1135.79 597.375 1134.37 598.796 1134.37 600.548C1134.37 602.301 1135.79 603.721 1137.54 603.721Z" fill="#E0E0E0"/>
<path d="M1285.81 323.057L1299.5 325.294L1285.81 327.56L1283.54 341.25L1281.31 327.56L1267.62 325.294L1281.31 323.057L1283.54 309.367L1285.81 323.057Z" fill="#EBEBEB"/>
<path d="M1286.75 325.296L1294.82 336.568L1283.55 328.499L1272.27 336.568L1280.37 325.296L1272.27 314.023L1283.55 322.123L1294.82 314.023L1286.75 325.296Z" fill="#EBEBEB"/>
<path d="M1283.54 328.471C1285.3 328.471 1286.72 327.051 1286.72 325.298C1286.72 323.546 1285.3 322.125 1283.54 322.125C1281.79 322.125 1280.37 323.546 1280.37 325.298C1280.37 327.051 1281.79 328.471 1283.54 328.471Z" fill="#E0E0E0"/>
<path d="M334.662 49.5574L348.352 51.8239L334.662 54.0905L332.395 67.7505L330.159 54.0905L316.469 51.8239L330.159 49.5574L332.395 35.8672L334.662 49.5574Z" fill="#EBEBEB"/>
<path d="M335.597 51.8272L343.666 63.0996L332.394 55.0004L321.121 63.0996L329.22 51.8272L321.121 40.5547L332.394 48.6237L343.666 40.5547L335.597 51.8272Z" fill="#EBEBEB"/>
<path d="M332.396 54.9949C334.148 54.9949 335.569 53.5742 335.569 51.8217C335.569 50.0691 334.148 48.6484 332.396 48.6484C330.643 48.6484 329.223 50.0691 329.223 51.8217C329.223 53.5742 330.643 54.9949 332.396 54.9949Z" fill="#E0E0E0"/>
<path d="M422.181 675.347L435.841 677.614L422.181 679.85L419.915 693.541L417.678 679.85L403.988 677.614L417.678 675.347L419.915 661.688L422.181 675.347Z" fill="#EBEBEB"/>
<path d="M423.12 677.616L431.189 688.889L419.917 680.789L408.645 688.889L416.744 677.616L408.645 666.344L419.917 674.413L431.189 666.344L423.12 677.616Z" fill="#EBEBEB"/>
<path d="M419.915 680.784C421.668 680.784 423.089 679.363 423.089 677.611C423.089 675.858 421.668 674.438 419.915 674.438C418.163 674.438 416.742 675.858 416.742 677.611C416.742 679.363 418.163 680.784 419.915 680.784Z" fill="#E0E0E0"/>
<path d="M711.881 921.198L725.571 923.434L711.881 925.701L709.614 939.361L707.347 925.701L693.688 923.434L707.347 921.198L709.614 907.508L711.881 921.198Z" fill="#EBEBEB"/>
<path d="M712.82 923.429L720.889 934.701L709.616 926.632L698.344 934.701L706.443 923.429L698.344 912.156L709.616 920.255L720.889 912.156L712.82 923.429Z" fill="#EBEBEB"/>
<path d="M712.788 923.435C712.788 924.063 712.602 924.676 712.253 925.198C711.904 925.72 711.409 926.127 710.829 926.367C710.249 926.607 709.611 926.67 708.996 926.547C708.38 926.425 707.815 926.123 707.371 925.679C706.927 925.235 706.625 924.67 706.502 924.054C706.38 923.439 706.443 922.801 706.683 922.221C706.923 921.641 707.33 921.145 707.852 920.797C708.374 920.448 708.987 920.262 709.615 920.262C710.037 920.24 710.459 920.307 710.854 920.459C711.249 920.611 711.608 920.844 711.907 921.143C712.206 921.442 712.439 921.801 712.591 922.195C712.742 922.59 712.81 923.013 712.788 923.435Z" fill="#E0E0E0"/>
<path d="M853.802 286.55L867.493 288.786L853.802 291.053L851.536 304.743L849.3 291.053L835.609 288.786L849.3 286.55L851.536 272.859L853.802 286.55Z" fill="#EBEBEB"/>
<path d="M854.738 288.788L862.807 300.061L851.534 291.992L840.262 300.061L848.361 288.788L840.262 277.516L851.534 285.615L862.807 277.516L854.738 288.788Z" fill="#EBEBEB"/>
<path d="M854.706 288.787C854.706 289.414 854.52 290.028 854.171 290.55C853.822 291.071 853.327 291.478 852.747 291.718C852.167 291.958 851.529 292.021 850.914 291.899C850.298 291.776 849.733 291.474 849.289 291.03C848.845 290.587 848.543 290.021 848.42 289.406C848.298 288.79 848.361 288.152 848.601 287.572C848.841 286.992 849.248 286.497 849.77 286.148C850.291 285.799 850.905 285.613 851.533 285.613C851.955 285.592 852.377 285.659 852.772 285.811C853.167 285.962 853.525 286.195 853.825 286.495C854.124 286.794 854.357 287.152 854.508 287.547C854.66 287.942 854.728 288.364 854.706 288.787Z" fill="#E0E0E0"/>
<path d="M228.738 218.762L244.876 221.391L228.738 224.051L226.079 240.219L223.419 224.051L207.281 221.391L223.419 218.762L226.079 202.594L228.738 218.762Z" fill="#EBEBEB"/>
<path d="M229.826 221.391L239.376 234.719L226.079 225.169L212.781 234.719L222.301 221.391L212.781 208.094L226.079 217.644L239.376 208.094L229.826 221.391Z" fill="#EBEBEB"/>
<path d="M229.944 221.397C229.95 222.139 229.735 222.867 229.327 223.487C228.919 224.107 228.336 224.592 227.652 224.88C226.967 225.169 226.213 225.247 225.484 225.106C224.755 224.965 224.085 224.61 223.558 224.088C223.03 223.565 222.671 222.897 222.523 222.169C222.376 221.442 222.449 220.687 222.732 220C223.014 219.314 223.495 218.727 224.111 218.313C224.728 217.9 225.454 217.68 226.197 217.68C227.185 217.68 228.134 218.07 228.836 218.767C229.538 219.463 229.936 220.408 229.944 221.397Z" fill="#E0E0E0"/>
<path d="M611.246 14.1381L627.384 16.7975L611.246 19.457L608.587 35.6253L605.927 19.457L589.789 16.7975L605.927 14.1381L608.587 -2L611.246 14.1381Z" fill="#EBEBEB"/>
<path d="M612.334 16.7973L621.884 30.0946L608.586 20.5749L595.289 30.0946L604.839 16.7973L595.289 3.5L608.586 13.0499L621.884 3.5L612.334 16.7973Z" fill="#EBEBEB"/>
<path d="M612.335 16.7943C612.335 17.7882 611.94 18.7413 611.237 19.4441C610.534 20.1469 609.581 20.5417 608.587 20.5417C607.593 20.5417 606.64 20.1469 605.937 19.4441C605.235 18.7413 604.84 17.7882 604.84 16.7943C604.84 15.8004 605.235 14.8473 605.937 14.1445C606.64 13.4417 607.593 13.0469 608.587 13.0469C609.581 13.0469 610.534 13.4417 611.237 14.1445C611.94 14.8473 612.335 15.8004 612.335 16.7943Z" fill="#E0E0E0"/>
<path d="M508.159 351.435L524.297 354.094L508.159 356.754L505.5 372.892L502.81 356.754L486.672 354.094L502.81 351.435L505.5 335.297L508.159 351.435Z" fill="#EBEBEB"/>
<path d="M509.248 354.094L518.768 367.391L505.5 357.872L492.203 367.391L501.723 354.094L492.203 340.797L505.5 350.347L518.768 340.797L509.248 354.094Z" fill="#EBEBEB"/>
<path d="M509.221 354.099C509.221 354.842 509.001 355.567 508.588 356.184C508.175 356.801 507.587 357.281 506.901 357.564C506.214 357.847 505.459 357.919 504.732 357.772C504.004 357.625 503.336 357.265 502.813 356.738C502.291 356.211 501.936 355.54 501.795 354.811C501.654 354.083 501.732 353.328 502.021 352.644C502.309 351.96 502.794 351.377 503.414 350.969C504.034 350.56 504.762 350.346 505.504 350.352C505.995 350.352 506.481 350.449 506.934 350.637C507.387 350.826 507.798 351.103 508.143 351.451C508.489 351.799 508.762 352.213 508.947 352.667C509.132 353.122 509.225 353.608 509.221 354.099Z" fill="#E0E0E0"/>
<path d="M259.199 861.927L275.337 864.587L259.199 867.246L256.54 883.384L253.88 867.246L237.742 864.587L253.88 861.927L256.54 845.789L259.199 861.927Z" fill="#EBEBEB"/>
<path d="M260.287 864.594L269.837 877.892L256.539 868.372L243.242 877.892L252.762 864.594L243.242 851.297L256.539 860.847L269.837 851.297L260.287 864.594Z" fill="#EBEBEB"/>
<path d="M260.167 864.591C260.167 865.332 259.947 866.057 259.535 866.673C259.123 867.289 258.538 867.77 257.853 868.053C257.169 868.337 256.415 868.411 255.688 868.267C254.961 868.122 254.294 867.765 253.769 867.241C253.245 866.717 252.888 866.049 252.744 865.322C252.599 864.595 252.674 863.842 252.957 863.157C253.241 862.472 253.721 861.887 254.337 861.475C254.954 861.064 255.678 860.844 256.419 860.844C257.413 860.844 258.366 861.239 259.069 861.941C259.772 862.644 260.167 863.597 260.167 864.591Z" fill="#E0E0E0"/>
<path d="M911.554 661.654L927.692 664.313L911.554 666.973L908.894 683.111L906.235 666.973L890.066 664.313L906.235 661.654L908.894 645.516L911.554 661.654Z" fill="#EBEBEB"/>
<path d="M912.642 664.313L922.192 677.61L908.895 668.06L895.598 677.61L905.117 664.313L895.598 651.016L908.895 660.535L922.192 651.016L912.642 664.313Z" fill="#EBEBEB"/>
<path d="M912.639 664.318C912.639 665.312 912.244 666.265 911.542 666.967C910.839 667.67 909.886 668.065 908.892 668.065C907.898 668.065 906.945 667.67 906.242 666.967C905.539 666.265 905.145 665.312 905.145 664.318C905.145 663.324 905.539 662.371 906.242 661.668C906.945 660.965 907.898 660.57 908.892 660.57C909.886 660.57 910.839 660.965 911.542 661.668C912.244 662.371 912.639 663.324 912.639 664.318Z" fill="#E0E0E0"/>
<path d="M521.887 118.36C526.438 90.319 507.397 63.8979 479.356 59.3463C451.316 54.7947 424.895 73.8362 420.343 101.877C415.791 129.917 434.833 156.338 462.873 160.89C490.914 165.441 517.335 146.4 521.887 118.36Z" fill="#F5F5F5"/>
<path d="M1285.02 492.578C1291.54 464.93 1274.42 437.227 1246.77 430.701C1219.13 424.176 1191.42 441.299 1184.9 468.947C1178.37 496.595 1195.5 524.298 1223.14 530.823C1250.79 537.349 1278.49 520.226 1285.02 492.578Z" fill="#F5F5F5"/>
<path d="M1016.44 845.873C1044.84 845.873 1067.87 822.844 1067.87 794.436C1067.87 766.029 1044.84 743 1016.44 743C988.029 743 965 766.029 965 794.436C965 822.844 988.029 845.873 1016.44 845.873Z" fill="#F5F5F5"/>
<path d="M1070.56 150.859C1074.3 135.021 1064.49 119.151 1048.65 115.413C1032.81 111.675 1016.94 121.484 1013.21 137.322C1009.47 153.161 1019.28 169.03 1035.12 172.769C1050.95 176.507 1066.82 166.698 1070.56 150.859Z" fill="#F5F5F5"/>
<path d="M703.844 756.791C720.118 756.791 733.31 743.598 733.31 727.325C733.31 711.052 720.118 697.859 703.844 697.859C687.571 697.859 674.379 711.052 674.379 727.325C674.379 743.598 687.571 756.791 703.844 756.791Z" fill="#F5F5F5"/>
<path d="M289.768 647.663C301.275 636.156 301.275 617.5 289.768 605.993C278.261 594.486 259.604 594.486 248.097 605.993C236.59 617.5 236.59 636.156 248.097 647.663C259.604 659.17 278.261 659.17 289.768 647.663Z" fill="#F5F5F5"/>
<path fill-rule="evenodd" clip-rule="evenodd" d="M1385 641.466C1384.87 647.943 1378.03 658.725 1367.04 670.926C1359.07 679.763 1349.8 688.306 1342.03 694.063L1341.55 694.418L1341.87 695.849C1343.76 704.148 1346.22 713.171 1345.29 722.27C1343.03 744.353 1325.79 769.269 1303.01 781.51C1294.7 786.181 1285.26 789.061 1275.57 790.315L1274.65 790.429C1267.43 791.281 1260.51 791.14 1256.29 790.267C1239.9 786.88 1226.02 775.396 1217.62 758.774C1217.59 758.719 1217.57 758.661 1217.56 758.603C1216.45 759.235 1214.96 759.94 1214.29 760.171L1212.43 760.801C1192.38 767.557 1172.51 773.208 1164.39 769.681C1161.3 768.338 1160.25 765.755 1161.54 762.286C1162.8 758.914 1166.28 754.569 1172.12 749.162L1172.44 748.866C1177.98 743.78 1190.27 734.487 1209.33 720.987L1209.33 720.739C1210.26 680.737 1241.27 650.242 1280.25 652.731C1292.17 653.493 1301.66 657.738 1306.4 660.345L1308.49 659.223C1328.05 648.743 1343.74 641.377 1355.72 636.968C1375.41 629.717 1385.15 633.107 1385 641.466ZM1356.36 641.265C1334.34 649.373 1299.54 667.608 1251.09 696.941L1249.62 697.833C1211.89 720.719 1186.91 738.105 1173.7 750.239L1173.05 750.841L1172.43 751.422C1162.51 760.81 1160.76 766.069 1165.13 767.971C1172.63 771.228 1192.75 765.738 1212.46 759.261L1214.29 758.657C1216.04 758.073 1217.21 757.738 1217.93 757.584C1217.96 757.561 1218 757.541 1218.03 757.522C1218.28 757.398 1218.56 757.393 1218.79 757.487C1218.84 757.497 1218.88 757.513 1218.9 757.535C1219.06 757.622 1219.19 757.758 1219.28 757.933C1227.43 774.069 1240.85 783.902 1256.67 787.169C1260.77 788.016 1267.7 788.141 1274.9 787.248L1275.34 787.193C1284.8 785.968 1294.02 784.43 1302.12 779.877C1324.38 767.914 1341.24 743.537 1343.44 722.079C1344.38 712.909 1343.18 703.907 1340 695.53C1339.73 695.714 1339.47 695.894 1339.21 696.072C1338.72 696.406 1338.91 695.864 1339.76 694.447C1339.81 694.262 1339.91 694.093 1340.05 693.967L1340.32 693.549C1340.41 693.403 1340.51 693.252 1340.61 693.094L1341.71 692.163C1352.1 683.36 1360.08 675.865 1365.66 669.676L1366.29 668.966C1376.61 657.395 1383.03 647.173 1383.13 641.432C1383.25 635.133 1374.96 634.416 1356.36 641.265ZM1262.99 759.09C1265.49 766.73 1261.71 771.645 1255.07 771.899C1248.93 772.133 1243.34 768.257 1243.63 762.749C1243.87 757.989 1247.13 752.9 1251.13 751.032C1255.97 748.771 1260.52 751.513 1262.99 759.09ZM1252.11 753.143C1248.91 754.638 1246.15 758.951 1245.95 762.87C1245.75 766.774 1250.05 769.759 1254.98 769.571C1260.14 769.374 1262.78 765.929 1260.78 759.814C1258.71 753.448 1255.54 751.541 1252.11 753.143ZM1313.71 743.521C1316.9 749.548 1316.06 755.47 1311.17 758.123L1311.03 758.196L1310.96 758.267C1304.4 764.779 1296.2 765.57 1290.85 760.849L1290.67 760.684C1284.51 755.03 1285.98 745.317 1295.78 737.702C1302.08 732.802 1309.79 736.088 1313.71 743.521ZM1297 739.28C1288.1 746.193 1286.85 754.471 1292.01 759.212C1295.72 762.612 1301.19 762.8 1306.3 759.5L1306.4 759.433L1306.36 759.426C1306.01 759.332 1305.73 759.046 1305.65 758.673L1305.63 758.578C1305.56 758.031 1305.96 757.535 1306.5 757.47C1307.75 757.321 1308.84 757.019 1309.76 756.586L1309.88 756.524L1310.03 756.366C1310.63 755.734 1311.22 755.046 1311.79 754.301L1311.98 754.051C1312.19 753.765 1312.52 753.626 1312.86 753.653L1312.88 753.655L1312.89 753.631C1314.09 751.267 1313.8 748.065 1312.06 744.656L1311.95 744.455C1308.54 737.991 1302.16 735.27 1297 739.28ZM1356.25 667.637C1355.73 669.46 1354.18 671.961 1351.79 674.924C1347.62 680.088 1341.37 686.098 1335.9 690.208L1337.11 688.871C1337.1 688.861 1337.09 688.847 1337.08 688.831L1336.66 688.06C1333.93 683.055 1330.88 678.119 1325.95 674.094C1313.2 679.363 1298.58 686.564 1285.26 694.094L1280.89 696.568C1248.74 714.82 1231.82 725.747 1213.73 739.181C1214.41 742.262 1215.27 745.269 1216.3 748.182C1216.47 748.639 1214.35 750.35 1213.97 750.139C1210.36 752.562 1204.71 754.322 1201.49 754.413C1198.35 754.503 1196.54 753.231 1197.47 750.695C1198.25 748.573 1201.2 745.547 1206.49 741.492L1207.09 741.033L1208.31 740.115C1228.23 725.172 1247.95 713.046 1284.34 692.471L1285.87 691.615C1310.83 677.652 1339.74 665.073 1352.98 663.912C1355.7 663.673 1356.94 665.182 1356.25 667.637ZM1211.31 740.988L1207.13 744.144C1203.41 746.972 1200.73 749.064 1199.28 750.406L1199.17 750.506C1197.4 752.169 1199.4 752.608 1201.44 752.551C1204.51 752.464 1209.22 750.126 1213.21 747.999C1212.48 745.71 1211.84 743.37 1211.31 740.988ZM1276.58 730.872C1277.08 730.998 1277.38 731.505 1277.26 732.004C1277.13 732.503 1276.62 732.805 1276.13 732.678C1273.63 732.041 1272.15 732.286 1271.67 732.961C1271.35 733.408 1271.53 734.171 1272.12 734.659C1272.59 735.04 1273.21 735.221 1273.63 735.129C1274 735.048 1274.21 734.762 1274.21 734.047C1274.21 733.532 1274.63 733.115 1275.14 733.115C1275.65 733.115 1276.07 733.532 1276.07 734.047C1276.07 735.602 1275.29 736.673 1274.03 736.949C1273.01 737.171 1271.83 736.822 1270.95 736.101C1269.65 735.035 1269.22 733.196 1270.16 731.88C1271.18 730.438 1273.42 730.068 1276.58 730.872ZM1235.74 727.451C1237.18 727.882 1237.79 728.985 1237.99 730.64L1238.01 730.82L1238.03 731.092C1238.04 731.138 1238.04 731.184 1238.04 731.234L1238.09 732.18L1238.11 732.393C1238.11 732.487 1238.12 732.563 1238.13 732.631L1238.16 732.773L1238.17 732.836L1238.2 732.859C1238.48 733.141 1238.56 733.582 1238.37 733.947L1238.33 734.029C1238.05 734.462 1237.47 734.586 1237.04 734.307C1236.45 733.924 1236.31 733.529 1236.24 732.396L1236.18 731.286C1236.17 731.186 1236.17 731.099 1236.16 731.001C1236.05 729.916 1235.79 729.41 1235.21 729.236C1233.59 728.749 1232.65 729.246 1232.36 730.334C1232.1 731.304 1232.48 732.322 1233.14 732.605L1233.31 732.668C1233.75 732.855 1233.98 733.346 1233.83 733.808C1233.67 734.298 1233.15 734.568 1232.66 734.412C1230.89 733.847 1230.05 731.739 1230.56 729.845C1231.14 727.732 1233.13 726.667 1235.74 727.451ZM1302.82 713.185C1305.4 716.812 1304.92 721.428 1300.79 723.516C1300.33 723.748 1299.77 723.563 1299.54 723.104C1299.31 722.644 1299.49 722.084 1299.95 721.853C1302.94 720.34 1303.28 717.048 1301.31 714.265C1299.39 711.562 1296.72 711.265 1294.88 714.185C1292.94 717.282 1293.08 719.1 1294.48 719.918C1295.59 720.568 1297.38 720.432 1297.87 719.9L1297.92 719.842C1298.22 719.423 1298.8 719.325 1299.22 719.623C1299.64 719.922 1299.73 720.504 1299.44 720.923C1298.4 722.377 1295.45 722.645 1293.54 721.528C1291.09 720.098 1290.86 717.088 1293.31 713.193C1295.93 709.022 1300.2 709.497 1302.82 713.185ZM1264.27 707.843C1264.76 707.843 1265.15 708.213 1265.2 708.685L1265.2 708.775C1265.2 708.939 1265.36 709.122 1265.9 709.523L1266.42 709.894C1266.98 710.305 1267.25 710.561 1267.51 710.967C1268.09 711.896 1268.43 712.841 1268.43 713.954C1268.43 716.801 1264.16 720.674 1259.5 722.397C1253.91 724.463 1249.34 722.931 1248.09 717.187C1247.98 716.684 1248.3 716.188 1248.8 716.079C1249.3 715.97 1249.8 716.289 1249.91 716.792C1250.87 721.249 1254.21 722.366 1258.85 720.649C1262.86 719.166 1266.57 715.807 1266.57 713.954C1266.57 713.236 1266.35 712.617 1265.94 711.963L1265.88 711.884C1265.79 711.764 1265.64 711.634 1265.37 711.436L1264.76 710.994C1263.74 710.241 1263.34 709.732 1263.34 708.775C1263.34 708.26 1263.76 707.843 1264.27 707.843ZM1268.64 656.203L1268.05 656.269C1236.32 660.093 1212.52 685.521 1211.23 719.644L1214.63 717.244C1224.4 710.371 1235.74 702.52 1248.65 693.691L1251.17 692.168C1258.68 687.627 1265.86 683.353 1272.72 679.344C1272.59 679.125 1272.56 678.854 1272.64 678.595C1273.12 677.129 1273.57 676.144 1274.38 675.157C1276.92 672.069 1280.4 670.561 1282.86 672.5C1283.11 672.691 1283.23 672.978 1283.22 673.265L1285.41 672.013C1292.31 668.078 1298.83 664.444 1304.99 661.107L1302.59 660.421C1299.02 659.414 1294.58 658.221 1290.16 657.302C1290.2 660.25 1288 662.604 1284.34 664.224C1281.23 665.601 1277.17 666.341 1274.29 666.169C1268.9 665.847 1265.87 661.108 1268.64 656.203ZM1324.29 696.664C1326.57 702.893 1324.69 708.557 1319.01 708.52C1310.92 708.467 1303.01 701.385 1304.29 695.04C1304.86 692.21 1306.98 689.706 1310.67 688.457C1316.57 686.461 1321.98 690.323 1324.29 696.664ZM1311.27 690.222C1308.22 691.255 1306.55 693.219 1306.11 695.409C1305.1 700.445 1311.98 706.611 1319.02 706.657C1323.06 706.683 1324.44 702.497 1322.55 697.305C1320.54 691.81 1316.05 688.604 1311.27 690.222ZM1242.9 668.166L1242.97 668.262L1243.42 668.975C1243.64 669.338 1243.83 669.692 1244.02 670.076C1246.08 674.294 1246.02 679.825 1242.54 687.503C1240.96 690.98 1236.94 695.654 1233.43 698.444C1228.94 702.005 1225.59 702.814 1221.6 702.374L1220.41 702.235L1220.27 702.221C1220.19 702.216 1220.14 702.216 1220.08 702.217L1220 702.221C1219.94 702.223 1219.92 702.221 1219.91 702.213V702.206L1219.88 702.255C1219.61 702.642 1219.09 702.769 1218.67 702.535C1218.22 702.284 1218.06 701.718 1218.31 701.268C1218.64 700.665 1219.2 700.393 1219.91 700.36C1220.1 700.351 1220.3 700.357 1220.54 700.377L1220.81 700.404L1221.58 700.497C1225.22 700.939 1228.12 700.283 1232.27 696.984C1235.57 694.364 1239.41 689.908 1240.85 686.731C1244.11 679.547 1244.16 674.598 1242.35 670.894C1242.23 670.648 1242.1 670.413 1241.97 670.178L1241.77 669.852L1241.38 669.234C1241.11 668.799 1241.24 668.224 1241.67 667.95C1242.08 667.694 1242.61 667.794 1242.9 668.166ZM1353.14 665.768C1347.2 666.289 1337.88 669.231 1327.14 673.608L1327.45 673.886C1330.44 676.574 1336.47 682.947 1338.36 687.493L1340.24 685.403C1344.88 680.232 1348.25 676.348 1350.34 673.752L1350.76 673.221C1352.77 670.677 1354.06 668.551 1354.46 667.132L1354.51 666.917C1354.76 665.894 1354.47 665.651 1353.14 665.768ZM1264.11 668.794C1266.43 669.915 1267.37 672.412 1265.85 674.674C1265.56 675.101 1264.98 675.214 1264.55 674.926C1264.13 674.638 1264.02 674.059 1264.3 673.633C1265.14 672.388 1264.67 671.133 1263.3 670.472C1261.87 669.776 1260.3 670.177 1259.48 671.695C1258.74 673.094 1258.69 674.988 1259.28 676.229C1259.81 677.318 1260.57 677.527 1261.73 676.649C1262.14 676.339 1262.73 676.421 1263.04 676.833C1263.34 677.244 1263.26 677.828 1262.85 678.137C1260.73 679.738 1258.63 679.163 1257.61 677.039C1256.75 675.258 1256.82 672.736 1257.85 670.815C1259.16 668.365 1261.83 667.686 1264.11 668.794ZM1275.81 676.342C1275.38 676.869 1275.07 677.425 1274.78 678.139C1277.18 676.744 1279.53 675.381 1281.85 674.051L1281.78 674.012L1281.72 673.965C1280.3 672.849 1277.79 673.933 1275.81 676.342ZM1271.85 655.918L1271.03 655.975L1270.98 656.044C1267.77 660.114 1269 663.418 1273.39 663.887C1276.55 664.224 1284.91 661.88 1285.9 661.058C1286.85 660.256 1288.06 658.414 1288.25 656.921C1285.41 656.386 1282.63 655.993 1280.15 655.866C1277.62 655.737 1275.12 655.739 1272.66 655.87L1271.85 655.918Z" fill="#DADADA"/>
<path d="M1356.23 641.527C1376.04 634.252 1375.59 636.411 1356.88 643.282C1334.72 651.417 1251.09 702.388 1251.09 702.388C1213.13 725.349 1210.3 721.804 1247.09 699.462L1249.36 698.087C1249.78 697.829 1291.67 671.413 1321.6 657.279C1324.97 655.689 1353.97 642.356 1356.23 641.527Z" fill="white"/>
</svg>
