<svg width="20" height="20" viewBox="0 0 20 20" fill="none" xmlns="http://www.w3.org/2000/svg">
<path d="M4.16699 15H2.50033C2.00033 15 1.66699 14.6667 1.66699 14.1667V5.83333C1.66699 5.33333 2.00033 5 2.50033 5H10.8337C11.3337 5 11.667 5.33333 11.667 5.83333V15" stroke="#64748B" stroke-linecap="round" stroke-linejoin="round"/>
<path d="M11.667 7.5H15.0003L18.3337 10.8333V14.1667C18.3337 14.6667 18.0003 15 17.5003 15H15.8337" stroke="#64748B" stroke-linecap="round" stroke-linejoin="round"/>
<path d="M5.83366 16.6667C6.75413 16.6667 7.50033 15.9205 7.50033 15C7.50033 14.0795 6.75413 13.3333 5.83366 13.3333C4.91318 13.3333 4.16699 14.0795 4.16699 15C4.16699 15.9205 4.91318 16.6667 5.83366 16.6667Z" stroke="#64748B" stroke-linecap="round" stroke-linejoin="round"/>
<path d="M12.5 15H7.5" stroke="#64748B" stroke-linecap="round" stroke-linejoin="round"/>
<path d="M14.1667 16.6667C15.0871 16.6667 15.8333 15.9205 15.8333 15C15.8333 14.0795 15.0871 13.3333 14.1667 13.3333C13.2462 13.3333 12.5 14.0795 12.5 15C12.5 15.9205 13.2462 16.6667 14.1667 16.6667Z" stroke="#64748B" stroke-linecap="round" stroke-linejoin="round"/>
</svg>
