<svg width="101" height="34" viewBox="0 0 101 34" fill="none" xmlns="http://www.w3.org/2000/svg">
<rect x="0.5" y="0.5" width="100" height="33" rx="16.5" fill="#FFBF78" fill-opacity="0.3" stroke="#FFBF78"/>
<path d="M16.9868 21.2334L19.0535 22.8334C19.3201 23.1001 19.9201 23.2334 20.3201 23.2334H22.8535C23.6535 23.2334 24.5202 22.6334 24.7202 21.8334L26.3202 16.9667C26.6535 16.0334 26.0535 15.2334 25.0535 15.2334H22.3868C21.9868 15.2334 21.6535 14.9001 21.7201 14.4334L22.0535 12.3001C22.1868 11.7001 21.7868 11.0334 21.1868 10.8334C20.6535 10.6334 19.9868 10.9001 19.7201 11.3001L16.9868 15.3667" stroke="#FF7D29" stroke-width="1.5" stroke-miterlimit="10"/>
<path d="M13.5864 21.2333V14.7C13.5864 13.7667 13.9864 13.4333 14.9198 13.4333H15.5864C16.5198 13.4333 16.9198 13.7667 16.9198 14.7V21.2333C16.9198 22.1667 16.5198 22.5 15.5864 22.5H14.9198C13.9864 22.5 13.5864 22.1667 13.5864 21.2333Z" stroke="#FF7D29" stroke-width="1.5" stroke-linecap="round" stroke-linejoin="round"/>
<path d="M38.096 22.112C37.8507 22.112 37.6587 22.0427 37.52 21.904C37.3813 21.7653 37.312 21.568 37.312 21.312V11.44C37.312 11.1733 37.376 10.9707 37.504 10.832C37.6427 10.6827 37.824 10.608 38.048 10.608C38.24 10.608 38.384 10.6453 38.48 10.72C38.5867 10.784 38.7093 10.9067 38.848 11.088L45.44 19.776H45.04V11.392C45.04 11.1467 45.104 10.9547 45.232 10.816C45.3707 10.6773 45.5627 10.608 45.808 10.608C46.064 10.608 46.256 10.6773 46.384 10.816C46.512 10.9547 46.576 11.1467 46.576 11.392V21.328C46.576 21.5733 46.512 21.7653 46.384 21.904C46.2667 22.0427 46.1067 22.112 45.904 22.112C45.712 22.112 45.552 22.0747 45.424 22C45.3067 21.9253 45.1787 21.7973 45.04 21.616L38.48 12.944H38.848V21.312C38.848 21.568 38.784 21.7653 38.656 21.904C38.528 22.0427 38.3413 22.112 38.096 22.112ZM52.4186 22.144C51.6293 22.144 50.9466 21.9787 50.3706 21.648C49.8053 21.3173 49.3626 20.848 49.0426 20.24C48.7226 19.632 48.5626 18.9173 48.5626 18.096C48.5626 17.4667 48.6533 16.9067 48.8346 16.416C49.016 15.9253 49.272 15.504 49.6026 15.152C49.944 14.7893 50.3493 14.5173 50.8186 14.336C51.2986 14.144 51.832 14.048 52.4186 14.048C53.1973 14.048 53.8693 14.2133 54.4346 14.544C55.0106 14.8747 55.4586 15.344 55.7786 15.952C56.0986 16.5493 56.2586 17.264 56.2586 18.096C56.2586 18.7147 56.168 19.2747 55.9866 19.776C55.8053 20.2773 55.544 20.704 55.2026 21.056C54.872 21.408 54.4666 21.68 53.9866 21.872C53.5173 22.0533 52.9946 22.144 52.4186 22.144ZM52.4186 20.896C52.856 20.896 53.24 20.7893 53.5706 20.576C53.9013 20.3627 54.1573 20.048 54.3386 19.632C54.5306 19.216 54.6266 18.704 54.6266 18.096C54.6266 17.1787 54.424 16.4853 54.0186 16.016C53.6133 15.5467 53.08 15.312 52.4186 15.312C51.9706 15.312 51.5813 15.4187 51.2506 15.632C50.92 15.8347 50.6586 16.144 50.4666 16.56C50.2853 16.976 50.1946 17.488 50.1946 18.096C50.1946 19.0027 50.3973 19.696 50.8026 20.176C51.208 20.656 51.7466 20.896 52.4186 20.896ZM51.0586 13.104C50.9413 13.2213 50.824 13.2907 50.7066 13.312C50.5893 13.3227 50.4826 13.3013 50.3866 13.248C50.2906 13.184 50.2266 13.0933 50.1946 12.976C50.1733 12.8587 50.2106 12.736 50.3066 12.608L51.4586 10.896C51.5973 10.6933 51.7413 10.5547 51.8906 10.48C52.0506 10.4053 52.2266 10.368 52.4186 10.368C52.5466 10.368 52.6693 10.384 52.7866 10.416C52.904 10.448 53.0106 10.5013 53.1066 10.576C53.2133 10.6507 53.304 10.7573 53.3786 10.896L54.5306 12.608C54.6266 12.736 54.664 12.8587 54.6426 12.976C54.6213 13.0933 54.5626 13.184 54.4666 13.248C54.3813 13.3013 54.2746 13.3227 54.1466 13.312C54.0186 13.2907 53.9013 13.2213 53.7946 13.104L52.4186 11.504L51.0586 13.104ZM54.8026 11.552C54.664 11.6267 54.536 11.6427 54.4186 11.6C54.3013 11.5573 54.2266 11.4827 54.1946 11.376C54.1733 11.2693 54.2213 11.168 54.3386 11.072C54.552 10.9227 54.712 10.784 54.8186 10.656C54.936 10.5173 54.9946 10.368 54.9946 10.208C54.9946 10.0587 54.9413 9.952 54.8346 9.888C54.7386 9.824 54.5733 9.792 54.3386 9.792C54.2533 9.792 54.1626 9.79733 54.0666 9.808C53.9706 9.81867 53.8693 9.83467 53.7626 9.856C53.624 9.89867 53.5066 9.904 53.4106 9.872C53.3253 9.82933 53.2666 9.75467 53.2346 9.648C53.192 9.54133 53.1973 9.44533 53.2506 9.36C53.304 9.27467 53.4 9.21067 53.5386 9.168C53.7093 9.11467 53.8853 9.07733 54.0666 9.056C54.2586 9.03467 54.456 9.024 54.6586 9.024C55.1173 9.024 55.4746 9.09867 55.7306 9.248C55.9866 9.39733 56.1146 9.63733 56.1146 9.968C56.1146 10.1813 56.0453 10.3947 55.9066 10.608C55.7786 10.8107 55.6133 10.992 55.4106 11.152C55.208 11.3013 55.0053 11.4347 54.8026 11.552ZM58.8735 22.096C58.6175 22.096 58.4202 22.0213 58.2815 21.872C58.1428 21.712 58.0735 21.4933 58.0735 21.216V14.976C58.0735 14.6987 58.1428 14.4853 58.2815 14.336C58.4202 14.1867 58.6175 14.112 58.8735 14.112C59.1295 14.112 59.3268 14.1867 59.4655 14.336C59.6148 14.4853 59.6895 14.6987 59.6895 14.976V21.216C59.6895 21.4933 59.6202 21.712 59.4815 21.872C59.3428 22.0213 59.1402 22.096 58.8735 22.096ZM58.8735 12.448C58.5535 12.448 58.3028 12.368 58.1215 12.208C57.9508 12.048 57.8655 11.824 57.8655 11.536C57.8655 11.2373 57.9508 11.0133 58.1215 10.864C58.3028 10.704 58.5535 10.624 58.8735 10.624C59.1935 10.624 59.4388 10.704 59.6095 10.864C59.7908 11.0133 59.8815 11.2373 59.8815 11.536C59.8815 11.824 59.7908 12.048 59.6095 12.208C59.4388 12.368 59.1935 12.448 58.8735 12.448ZM70.3749 22.144C69.6922 22.144 69.1002 21.9733 68.5989 21.632C68.0975 21.28 67.7615 20.816 67.5909 20.24L67.7669 19.952V21.296C67.7669 21.552 67.6975 21.7547 67.5589 21.904C67.4202 22.0427 67.2282 22.112 66.9829 22.112C66.7269 22.112 66.5295 22.0427 66.3909 21.904C66.2522 21.7547 66.1829 21.552 66.1829 21.296V11.424C66.1829 11.1573 66.2522 10.9547 66.3909 10.816C66.5295 10.6773 66.7269 10.608 66.9829 10.608C67.2389 10.608 67.4362 10.6773 67.5749 10.816C67.7242 10.9547 67.7989 11.1573 67.7989 11.424V15.904H67.6069C67.7775 15.3387 68.1135 14.8907 68.6149 14.56C69.1162 14.2187 69.7029 14.048 70.3749 14.048C71.0789 14.048 71.6869 14.2133 72.1989 14.544C72.7109 14.8747 73.1055 15.3387 73.3829 15.936C73.6709 16.5333 73.8149 17.2533 73.8149 18.096C73.8149 18.9173 73.6709 19.6373 73.3829 20.256C73.1055 20.864 72.7055 21.3333 72.1829 21.664C71.6709 21.984 71.0682 22.144 70.3749 22.144ZM69.9749 20.896C70.4229 20.896 70.8122 20.7893 71.1429 20.576C71.4735 20.3627 71.7295 20.048 71.9109 19.632C72.0922 19.216 72.1829 18.704 72.1829 18.096C72.1829 17.1787 71.9802 16.4853 71.5749 16.016C71.1802 15.5467 70.6469 15.312 69.9749 15.312C69.5375 15.312 69.1482 15.4187 68.8069 15.632C68.4762 15.8347 68.2202 16.144 68.0389 16.56C67.8575 16.976 67.7669 17.488 67.7669 18.096C67.7669 19.0027 67.9695 19.696 68.3749 20.176C68.7802 20.656 69.3135 20.896 69.9749 20.896ZM78.132 22.144C77.588 22.144 77.0973 22.0373 76.66 21.824C76.2333 21.6107 75.8973 21.3227 75.652 20.96C75.4067 20.5973 75.284 20.1867 75.284 19.728C75.284 19.152 75.428 18.6987 75.716 18.368C76.0147 18.0267 76.5 17.7867 77.172 17.648C77.8547 17.4987 78.772 17.424 79.924 17.424H80.676V18.416H79.94C79.172 18.416 78.564 18.4533 78.116 18.528C77.668 18.6027 77.348 18.7307 77.156 18.912C76.9747 19.0827 76.884 19.3227 76.884 19.632C76.884 20.0373 77.0227 20.368 77.3 20.624C77.5773 20.8693 77.9613 20.992 78.452 20.992C78.8467 20.992 79.1933 20.9013 79.492 20.72C79.7907 20.528 80.0253 20.272 80.196 19.952C80.3773 19.632 80.468 19.264 80.468 18.848V17.008C80.468 16.4 80.34 15.9627 80.084 15.696C79.828 15.4293 79.4067 15.296 78.82 15.296C78.4787 15.296 78.1213 15.3387 77.748 15.424C77.3853 15.5093 77.0067 15.6533 76.612 15.856C76.4307 15.9413 76.276 15.968 76.148 15.936C76.02 15.904 75.9187 15.8347 75.844 15.728C75.7693 15.6107 75.7267 15.488 75.716 15.36C75.716 15.2213 75.748 15.088 75.812 14.96C75.8867 14.832 76.0093 14.736 76.18 14.672C76.6493 14.448 77.1133 14.288 77.572 14.192C78.0307 14.096 78.4627 14.048 78.868 14.048C79.5827 14.048 80.1693 14.16 80.628 14.384C81.0973 14.608 81.444 14.9493 81.668 15.408C81.892 15.8667 82.004 16.4587 82.004 17.184V21.296C82.004 21.552 81.94 21.7547 81.812 21.904C81.684 22.0427 81.4973 22.112 81.252 22.112C81.0173 22.112 80.8307 22.0427 80.692 21.904C80.5533 21.7547 80.484 21.552 80.484 21.296V20.256H80.628C80.5427 20.6507 80.3827 20.992 80.148 21.28C79.924 21.5573 79.6413 21.7707 79.3 21.92C78.9587 22.0693 78.5693 22.144 78.132 22.144ZM78.836 25.184C78.548 25.184 78.324 25.104 78.164 24.944C78.0147 24.7947 77.94 24.5813 77.94 24.304C77.94 24.0267 78.0147 23.8133 78.164 23.664C78.324 23.5147 78.548 23.44 78.836 23.44C79.1347 23.44 79.3587 23.5147 79.508 23.664C79.668 23.8133 79.748 24.0267 79.748 24.304C79.748 24.5813 79.668 24.7947 79.508 24.944C79.3587 25.104 79.1347 25.184 78.836 25.184ZM81.092 12.576C81.1667 12.7253 81.1827 12.8587 81.14 12.976C81.0973 13.0933 81.0227 13.184 80.916 13.248C80.8093 13.3013 80.692 13.3173 80.564 13.296C80.4467 13.2747 80.3453 13.2 80.26 13.072L78.9 10.912L77.54 13.072C77.4547 13.2 77.348 13.2747 77.22 13.296C77.1027 13.3173 76.9907 13.3013 76.884 13.248C76.7773 13.184 76.7027 13.0933 76.66 12.976C76.6173 12.8587 76.6333 12.7253 76.708 12.576L77.972 10.288C78.0787 10.0853 78.2067 9.936 78.356 9.84C78.516 9.744 78.6973 9.696 78.9 9.696C79.1027 9.696 79.284 9.744 79.444 9.84C79.604 9.936 79.7373 10.0853 79.844 10.288L81.092 12.576ZM87.5578 22.144C86.9178 22.144 86.3791 22.032 85.9418 21.808C85.5044 21.584 85.1791 21.2533 84.9658 20.816C84.7524 20.3787 84.6458 19.8453 84.6458 19.216V15.44H83.6858C83.4724 15.44 83.3071 15.3867 83.1898 15.28C83.0724 15.1627 83.0137 15.008 83.0137 14.816C83.0137 14.6133 83.0724 14.4587 83.1898 14.352C83.3071 14.2453 83.4724 14.192 83.6858 14.192H84.6458V12.544C84.6458 12.2773 84.7151 12.0747 84.8538 11.936C85.0031 11.7973 85.2058 11.728 85.4618 11.728C85.7178 11.728 85.9151 11.7973 86.0538 11.936C86.1924 12.0747 86.2618 12.2773 86.2618 12.544V14.192H88.1338C88.3471 14.192 88.5124 14.2453 88.6298 14.352C88.7471 14.4587 88.8058 14.6133 88.8058 14.816C88.8058 15.008 88.7471 15.1627 88.6298 15.28C88.5124 15.3867 88.3471 15.44 88.1338 15.44H86.2618V19.088C86.2618 19.6533 86.3791 20.08 86.6138 20.368C86.8591 20.656 87.2538 20.8 87.7977 20.8C87.9898 20.8 88.1551 20.784 88.2938 20.752C88.4431 20.7093 88.5658 20.6827 88.6618 20.672C88.7791 20.672 88.8751 20.7147 88.9498 20.8C89.0244 20.8747 89.0618 21.024 89.0618 21.248C89.0618 21.408 89.0298 21.5573 88.9658 21.696C88.9124 21.8347 88.8111 21.9253 88.6618 21.968C88.5338 22.0107 88.3578 22.048 88.1338 22.08C87.9204 22.1227 87.7284 22.144 87.5578 22.144Z" fill="#FF7D29"/>
</svg>
