<svg width="40" height="41" viewBox="0 0 40 41" fill="none" xmlns="http://www.w3.org/2000/svg">
<path d="M40 20.3871C40 25.794 37.8929 30.9796 34.1421 34.8029C30.3914 38.6262 25.3043 40.7741 20 40.7741C14.6957 40.7741 9.60859 38.6262 5.85786 34.8029C2.10714 30.9796 0 25.794 0 20.3871C0 17.7098 0.517325 15.0587 1.52242 12.5853C2.52751 10.1118 4.00069 7.86434 5.85786 5.97123C9.60859 2.14792 14.6957 0 20 0C22.6264 0 25.2272 0.527325 27.6537 1.55187C30.0802 2.57642 32.285 4.07812 34.1421 5.97123C35.9993 7.86434 37.4725 10.1118 38.4776 12.5853C39.4827 15.0587 40 17.7098 40 20.3871ZM37.6797 20.3793C37.6797 15.5934 35.8146 11.0036 32.4948 7.61946C29.1749 4.23534 24.6722 2.33416 19.9772 2.33416C15.2822 2.33416 10.7795 4.23534 7.45959 7.61946C4.13972 11.0036 2.27464 15.5934 2.27464 20.3793C2.27464 25.1652 4.13972 29.755 7.45959 33.1391C10.7795 36.5233 15.2822 38.4244 19.9772 38.4244C24.6722 38.4244 29.1749 36.5233 32.4948 33.1391C35.8146 29.755 37.6797 25.1652 37.6797 20.3793Z" fill="#FFEEA9"/>
<path d="M35.7627 20.3949C35.7627 24.6584 34.1012 28.7472 31.1437 31.762C28.1862 34.7767 24.175 36.4704 19.9925 36.4704C15.8099 36.4704 11.7987 34.7767 8.84121 31.762C5.88372 28.7472 4.22223 24.6584 4.22223 20.3949C4.22223 16.1314 5.88372 12.0426 8.84121 9.02783C11.7987 6.0131 15.8099 4.31944 19.9925 4.31944C24.175 4.31944 28.1862 6.0131 31.1437 9.02783C34.1012 12.0426 35.7627 16.1314 35.7627 20.3949ZM17.9993 11.5391C12.5448 12.617 11.9362 19.7357 16.843 21.6279C18.4938 22.256 23.2485 21.341 23.2332 23.9C23.2256 26.1721 20.8673 26.0946 19.2469 26.0791C18.121 26.0739 17.2918 25.5233 16.7593 24.4273C16.6325 24.174 16.4322 24.0499 16.1583 24.0551L13.8609 24.0861C13.8051 24.0875 13.7503 24.101 13.7003 24.1259C13.6503 24.1507 13.6063 24.1862 13.5714 24.2299C13.5366 24.2735 13.5118 24.3243 13.4987 24.3785C13.4856 24.4327 13.4846 24.4891 13.4957 24.5436C13.9877 27.1285 15.4686 28.7105 17.9385 29.2895C18.2428 29.3619 18.3924 29.5583 18.3873 29.8789L18.3569 31.4531C18.3559 31.5267 18.3691 31.5998 18.3959 31.668C18.4227 31.7362 18.4625 31.7982 18.5128 31.8502C18.5632 31.9023 18.6231 31.9434 18.6891 31.9711C18.7551 31.9988 18.8258 32.0125 18.897 32.0114L21.2325 31.9881C21.5013 31.9881 21.6331 31.8486 21.6281 31.5694L21.6052 30.1968C21.5951 29.8246 21.7599 29.5687 22.0997 29.4291C25.6372 27.979 27.9118 24.7763 25.6144 21.2246C23.956 18.6656 21.3998 18.6811 18.646 18.7354C18.2691 18.7421 17.9 18.6261 17.5922 18.4044C17.2844 18.1827 17.0539 17.8667 16.9343 17.5024C16.3333 15.6878 17.4972 14.8658 19.1404 14.7417C20.4946 14.6409 22.4117 14.4238 22.9822 15.8739C23.0824 16.1293 23.2568 16.3476 23.4823 16.4999C23.7078 16.6523 23.9738 16.7314 24.245 16.7269L25.7209 16.7114C26.3599 16.7063 26.5957 16.3883 26.4284 15.7576C25.8147 13.4053 24.3414 11.9733 22.0084 11.4615C21.7549 11.4046 21.6306 11.2444 21.6357 10.9807L21.6737 9.32121C21.6788 8.94899 21.5013 8.76287 21.1412 8.76287L18.897 8.74736C18.5115 8.74736 18.3239 8.94123 18.334 9.32897L18.3645 11.0893C18.366 11.1952 18.3302 11.2983 18.2634 11.3806C18.1966 11.4629 18.1031 11.519 17.9993 11.5391Z" fill="#FF7D29"/>
</svg>
