<svg width="132" height="34" viewBox="0 0 132 34" fill="none" xmlns="http://www.w3.org/2000/svg">
<rect x="0.5" y="0.5" width="131" height="33" rx="16.5" fill="#FFBF78" fill-opacity="0.2" stroke="#FFBF78"/>
<path d="M42.368 22.144C41.2267 22.144 40.2507 21.9093 39.44 21.44C38.6293 20.9707 38.0053 20.304 37.568 19.44C37.1413 18.5653 36.928 17.536 36.928 16.352C36.928 15.4667 37.0507 14.672 37.296 13.968C37.5413 13.2533 37.8933 12.6453 38.352 12.144C38.8213 11.632 39.392 11.2427 40.064 10.976C40.7467 10.7093 41.5147 10.576 42.368 10.576C42.9973 10.576 43.6 10.6613 44.176 10.832C44.7627 11.0027 45.2693 11.248 45.696 11.568C45.8773 11.6853 45.9947 11.8293 46.048 12C46.112 12.16 46.1227 12.3147 46.08 12.464C46.048 12.6133 45.9787 12.7413 45.872 12.848C45.7653 12.944 45.6267 12.9973 45.456 13.008C45.296 13.0187 45.12 12.96 44.928 12.832C44.576 12.5653 44.1867 12.368 43.76 12.24C43.3333 12.112 42.8853 12.048 42.416 12.048C41.6053 12.048 40.9227 12.2187 40.368 12.56C39.8133 12.8907 39.392 13.376 39.104 14.016C38.816 14.656 38.672 15.4347 38.672 16.352C38.672 17.2693 38.816 18.0533 39.104 18.704C39.392 19.344 39.8133 19.8347 40.368 20.176C40.9227 20.5067 41.6053 20.672 42.416 20.672C42.8853 20.672 43.3333 20.608 43.76 20.48C44.1973 20.3413 44.608 20.1387 44.992 19.872C45.184 19.7547 45.3547 19.7013 45.504 19.712C45.664 19.7227 45.7973 19.776 45.904 19.872C46.0107 19.968 46.08 20.0907 46.112 20.24C46.1547 20.3787 46.1493 20.528 46.096 20.688C46.0533 20.8373 45.952 20.9653 45.792 21.072C45.3547 21.424 44.8373 21.6907 44.24 21.872C43.6427 22.0533 43.0187 22.144 42.368 22.144ZM48.7485 22.112C48.4925 22.112 48.2952 22.0427 48.1565 21.904C48.0178 21.7547 47.9485 21.552 47.9485 21.296V11.424C47.9485 11.1573 48.0178 10.9547 48.1565 10.816C48.2952 10.6773 48.4925 10.608 48.7485 10.608C49.0045 10.608 49.2018 10.6773 49.3405 10.816C49.4898 10.9547 49.5645 11.1573 49.5645 11.424V15.856H49.3405C49.5752 15.2587 49.9432 14.8107 50.4445 14.512C50.9458 14.2027 51.5218 14.048 52.1725 14.048C52.7912 14.048 53.3032 14.1653 53.7085 14.4C54.1245 14.624 54.4338 14.9707 54.6365 15.44C54.8392 15.8987 54.9405 16.48 54.9405 17.184V21.296C54.9405 21.552 54.8712 21.7547 54.7325 21.904C54.5938 22.0427 54.3965 22.112 54.1405 22.112C53.8738 22.112 53.6712 22.0427 53.5325 21.904C53.3938 21.7547 53.3245 21.552 53.3245 21.296V17.28C53.3245 16.608 53.1912 16.1173 52.9245 15.808C52.6685 15.4987 52.2632 15.344 51.7085 15.344C51.0578 15.344 50.5352 15.5467 50.1405 15.952C49.7565 16.3573 49.5645 16.9013 49.5645 17.584V21.296C49.5645 21.84 49.2925 22.112 48.7485 22.112ZM57.9673 22.096C57.7113 22.096 57.5139 22.0213 57.3753 21.872C57.2366 21.712 57.1673 21.4933 57.1673 21.216V14.976C57.1673 14.6987 57.2366 14.4853 57.3753 14.336C57.5139 14.1867 57.7113 14.112 57.9673 14.112C58.2233 14.112 58.4206 14.1867 58.5593 14.336C58.7086 14.4853 58.7833 14.6987 58.7833 14.976V21.216C58.7833 21.4933 58.7139 21.712 58.5753 21.872C58.4366 22.0213 58.2339 22.096 57.9673 22.096ZM58.5913 13.072C58.5059 13.2 58.3993 13.2747 58.2713 13.296C58.1539 13.3173 58.0366 13.296 57.9193 13.232C57.8019 13.168 57.7166 13.0773 57.6633 12.96C57.6206 12.8427 57.6313 12.7147 57.6953 12.576L58.9913 10.064C59.0766 9.89333 59.1833 9.78133 59.3113 9.728C59.4499 9.67467 59.5886 9.66933 59.7273 9.712C59.8766 9.744 59.9993 9.808 60.0953 9.904C60.2019 10 60.2659 10.1227 60.2873 10.272C60.3086 10.4107 60.2713 10.5493 60.1753 10.688L58.5913 13.072ZM61.8579 22.112C61.6019 22.112 61.4045 22.0427 61.2659 21.904C61.1272 21.7547 61.0579 21.552 61.0579 21.296V14.896C61.0579 14.6293 61.1272 14.4267 61.2659 14.288C61.4045 14.1493 61.5965 14.08 61.8419 14.08C62.0979 14.08 62.2899 14.1493 62.4179 14.288C62.5565 14.4267 62.6259 14.6293 62.6259 14.896V16.144L62.4499 15.856C62.6845 15.2587 63.0525 14.8107 63.5539 14.512C64.0552 14.2027 64.6312 14.048 65.2819 14.048C65.9005 14.048 66.4125 14.1653 66.8179 14.4C67.2339 14.624 67.5432 14.9707 67.7459 15.44C67.9485 15.8987 68.0499 16.48 68.0499 17.184V21.296C68.0499 21.552 67.9805 21.7547 67.8419 21.904C67.7032 22.0427 67.5059 22.112 67.2499 22.112C66.9832 22.112 66.7805 22.0427 66.6419 21.904C66.5032 21.7547 66.4339 21.552 66.4339 21.296V17.28C66.4339 16.608 66.3005 16.1173 66.0339 15.808C65.7779 15.4987 65.3725 15.344 64.8179 15.344C64.1672 15.344 63.6445 15.5467 63.2499 15.952C62.8659 16.3573 62.6739 16.9013 62.6739 17.584V21.296C62.6739 21.84 62.4019 22.112 61.8579 22.112ZM71.0766 22.112C70.8206 22.112 70.6233 22.0427 70.4846 21.904C70.346 21.7547 70.2766 21.552 70.2766 21.296V11.424C70.2766 11.1573 70.346 10.9547 70.4846 10.816C70.6233 10.6773 70.8206 10.608 71.0766 10.608C71.3326 10.608 71.53 10.6773 71.6686 10.816C71.818 10.9547 71.8926 11.1573 71.8926 11.424V15.856H71.6686C71.9033 15.2587 72.2713 14.8107 72.7726 14.512C73.274 14.2027 73.85 14.048 74.5006 14.048C75.1193 14.048 75.6313 14.1653 76.0366 14.4C76.4526 14.624 76.762 14.9707 76.9646 15.44C77.1673 15.8987 77.2686 16.48 77.2686 17.184V21.296C77.2686 21.552 77.1993 21.7547 77.0606 21.904C76.922 22.0427 76.7246 22.112 76.4686 22.112C76.202 22.112 75.9993 22.0427 75.8606 21.904C75.722 21.7547 75.6526 21.552 75.6526 21.296V17.28C75.6526 16.608 75.5193 16.1173 75.2526 15.808C74.9966 15.4987 74.5913 15.344 74.0366 15.344C73.386 15.344 72.8633 15.5467 72.4686 15.952C72.0846 16.3573 71.8926 16.9013 71.8926 17.584V21.296C71.8926 21.84 71.6206 22.112 71.0766 22.112ZM84.5141 22.112C84.2581 22.112 84.0608 22.0427 83.9221 21.904C83.7835 21.7547 83.7141 21.552 83.7141 21.296V11.424C83.7141 11.1573 83.7835 10.9547 83.9221 10.816C84.0608 10.6773 84.2581 10.608 84.5141 10.608C84.7701 10.608 84.9675 10.6773 85.1061 10.816C85.2555 10.9547 85.3301 11.1573 85.3301 11.424V15.856H85.1061C85.3408 15.2587 85.7088 14.8107 86.2101 14.512C86.7115 14.2027 87.2875 14.048 87.9381 14.048C88.5568 14.048 89.0688 14.1653 89.4741 14.4C89.8901 14.624 90.1995 14.9707 90.4021 15.44C90.6048 15.8987 90.7061 16.48 90.7061 17.184V21.296C90.7061 21.552 90.6368 21.7547 90.4981 21.904C90.3595 22.0427 90.1621 22.112 89.9061 22.112C89.6395 22.112 89.4368 22.0427 89.2981 21.904C89.1595 21.7547 89.0901 21.552 89.0901 21.296V17.28C89.0901 16.608 88.9568 16.1173 88.6901 15.808C88.4341 15.4987 88.0288 15.344 87.4741 15.344C86.8235 15.344 86.3008 15.5467 85.9061 15.952C85.5221 16.3573 85.3301 16.9013 85.3301 17.584V21.296C85.3301 21.84 85.0581 22.112 84.5141 22.112ZM95.4289 22.144C94.8849 22.144 94.3942 22.0373 93.9569 21.824C93.5302 21.6107 93.1942 21.3227 92.9489 20.96C92.7035 20.5973 92.5809 20.1867 92.5809 19.728C92.5809 19.152 92.7249 18.6987 93.0129 18.368C93.3115 18.0267 93.7969 17.7867 94.4689 17.648C95.1515 17.4987 96.0689 17.424 97.2209 17.424H97.9729V18.416H97.2369C96.4689 18.416 95.8609 18.4533 95.4129 18.528C94.9649 18.6027 94.6449 18.7307 94.4529 18.912C94.2715 19.0827 94.1809 19.3227 94.1809 19.632C94.1809 20.0373 94.3195 20.368 94.5969 20.624C94.8742 20.8693 95.2582 20.992 95.7489 20.992C96.1435 20.992 96.4902 20.9013 96.7889 20.72C97.0875 20.528 97.3222 20.272 97.4929 19.952C97.6742 19.632 97.7649 19.264 97.7649 18.848V17.008C97.7649 16.4 97.6369 15.9627 97.3809 15.696C97.1249 15.4293 96.7035 15.296 96.1169 15.296C95.7755 15.296 95.4182 15.3387 95.0449 15.424C94.6822 15.5093 94.3035 15.6533 93.9089 15.856C93.7275 15.9413 93.5729 15.968 93.4449 15.936C93.3169 15.904 93.2155 15.8347 93.1409 15.728C93.0662 15.6107 93.0235 15.488 93.0129 15.36C93.0129 15.2213 93.0449 15.088 93.1089 14.96C93.1835 14.832 93.3062 14.736 93.4769 14.672C93.9462 14.448 94.4102 14.288 94.8689 14.192C95.3275 14.096 95.7595 14.048 96.1649 14.048C96.8795 14.048 97.4662 14.16 97.9249 14.384C98.3942 14.608 98.7409 14.9493 98.9649 15.408C99.1889 15.8667 99.3009 16.4587 99.3009 17.184V21.296C99.3009 21.552 99.2369 21.7547 99.1089 21.904C98.9809 22.0427 98.7942 22.112 98.5489 22.112C98.3142 22.112 98.1275 22.0427 97.9889 21.904C97.8502 21.7547 97.7809 21.552 97.7809 21.296V20.256H97.9249C97.8395 20.6507 97.6795 20.992 97.4449 21.28C97.2209 21.5573 96.9382 21.7707 96.5969 21.92C96.2555 22.0693 95.8662 22.144 95.4289 22.144ZM93.6369 12.656C93.5089 12.6453 93.4075 12.5973 93.3329 12.512C93.2582 12.4267 93.2369 12.2987 93.2689 12.128C93.3115 11.8933 93.3755 11.6693 93.4609 11.456C93.5569 11.232 93.6742 11.0347 93.8129 10.864C93.9515 10.6933 94.1222 10.56 94.3249 10.464C94.5275 10.3573 94.7622 10.304 95.0289 10.304C95.2849 10.304 95.5142 10.3627 95.7169 10.48C95.9195 10.5973 96.1062 10.7307 96.2769 10.88C96.4475 11.0293 96.6182 11.1627 96.7889 11.28C96.9595 11.3973 97.1462 11.456 97.3489 11.456C97.5835 11.456 97.7809 11.3707 97.9409 11.2C98.1115 11.0293 98.2235 10.8053 98.2769 10.528C98.2982 10.4213 98.3462 10.3413 98.4209 10.288C98.4955 10.224 98.6075 10.1973 98.7569 10.208C98.8849 10.208 98.9862 10.2507 99.0609 10.336C99.1355 10.4213 99.1569 10.5547 99.1249 10.736C99.0715 11.0453 98.9702 11.3387 98.8209 11.616C98.6822 11.8933 98.4902 12.1173 98.2449 12.288C98.0102 12.4587 97.7169 12.544 97.3649 12.544C97.1089 12.544 96.8795 12.4907 96.6769 12.384C96.4742 12.2667 96.2822 12.1333 96.1009 11.984C95.9302 11.8347 95.7595 11.7013 95.5889 11.584C95.4182 11.4667 95.2369 11.408 95.0449 11.408C94.8102 11.408 94.6129 11.4933 94.4529 11.664C94.2929 11.824 94.1809 12.048 94.1169 12.336C94.1062 12.4427 94.0582 12.528 93.9729 12.592C93.8982 12.6453 93.7862 12.6667 93.6369 12.656ZM102.327 22.112C102.071 22.112 101.873 22.0427 101.735 21.904C101.596 21.7547 101.527 21.552 101.527 21.296V14.896C101.527 14.6293 101.596 14.4267 101.735 14.288C101.873 14.1493 102.065 14.08 102.311 14.08C102.567 14.08 102.759 14.1493 102.887 14.288C103.025 14.4267 103.095 14.6293 103.095 14.896V16.144L102.919 15.856C103.153 15.2587 103.521 14.8107 104.023 14.512C104.524 14.2027 105.1 14.048 105.751 14.048C106.369 14.048 106.881 14.1653 107.287 14.4C107.703 14.624 108.012 14.9707 108.215 15.44C108.417 15.8987 108.519 16.48 108.519 17.184V21.296C108.519 21.552 108.449 21.7547 108.311 21.904C108.172 22.0427 107.975 22.112 107.719 22.112C107.452 22.112 107.249 22.0427 107.111 21.904C106.972 21.7547 106.903 21.552 106.903 21.296V17.28C106.903 16.608 106.769 16.1173 106.503 15.808C106.247 15.4987 105.841 15.344 105.287 15.344C104.636 15.344 104.113 15.5467 103.719 15.952C103.335 16.3573 103.143 16.9013 103.143 17.584V21.296C103.143 21.84 102.871 22.112 102.327 22.112ZM114.281 25.024C113.705 25.024 113.145 24.9653 112.601 24.848C112.068 24.7307 111.583 24.5387 111.145 24.272C110.985 24.1867 110.879 24.08 110.825 23.952C110.772 23.8347 110.756 23.712 110.777 23.584C110.809 23.456 110.868 23.344 110.953 23.248C111.039 23.152 111.14 23.088 111.257 23.056C111.385 23.024 111.519 23.0453 111.657 23.12C112.127 23.376 112.569 23.5467 112.985 23.632C113.412 23.728 113.807 23.776 114.169 23.776C114.916 23.776 115.476 23.584 115.849 23.2C116.223 22.8267 116.409 22.272 116.409 21.536V19.904H116.553C116.393 20.4907 116.057 20.9547 115.545 21.296C115.033 21.6373 114.441 21.808 113.769 21.808C113.065 21.808 112.452 21.648 111.929 21.328C111.407 20.9973 111.001 20.544 110.713 19.968C110.425 19.3813 110.281 18.6987 110.281 17.92C110.281 17.3333 110.361 16.8053 110.521 16.336C110.692 15.8667 110.927 15.4613 111.225 15.12C111.535 14.7787 111.903 14.5173 112.329 14.336C112.767 14.144 113.247 14.048 113.769 14.048C114.452 14.048 115.044 14.2187 115.545 14.56C116.057 14.9013 116.388 15.3653 116.537 15.952L116.377 16.224V14.896C116.377 14.6293 116.447 14.4267 116.585 14.288C116.735 14.1493 116.932 14.08 117.177 14.08C117.433 14.08 117.631 14.1493 117.769 14.288C117.908 14.4267 117.977 14.6293 117.977 14.896V21.344C117.977 22.56 117.663 23.4773 117.033 24.096C116.404 24.7147 115.487 25.024 114.281 25.024ZM114.153 20.544C114.623 20.544 115.023 20.4373 115.353 20.224C115.684 20.0107 115.94 19.7067 116.121 19.312C116.303 18.9173 116.393 18.4533 116.393 17.92C116.393 17.12 116.191 16.4853 115.785 16.016C115.391 15.5467 114.847 15.312 114.153 15.312C113.695 15.312 113.3 15.4187 112.969 15.632C112.639 15.8453 112.377 16.1493 112.185 16.544C112.004 16.928 111.913 17.3867 111.913 17.92C111.913 18.7307 112.116 19.3707 112.521 19.84C112.927 20.3093 113.471 20.544 114.153 20.544Z" fill="#FF7D29"/>
<circle cx="19" cy="17" r="7" fill="#FF7D29"/>
<g clip-path="url(#clip0_5032_5162)">
<path d="M22.7623 14.2406L17.7241 19.2784C17.6902 19.3124 17.65 19.3394 17.6057 19.3578C17.5613 19.3762 17.5138 19.3857 17.4658 19.3857C17.4178 19.3857 17.3703 19.3762 17.3259 19.3578C17.2816 19.3394 17.2414 19.3124 17.2075 19.2784L15.2592 17.3282C15.2253 17.2942 15.185 17.2673 15.1407 17.2488C15.0964 17.2304 15.0489 17.221 15.0009 17.221C14.9529 17.221 14.9053 17.2304 14.861 17.2488C14.8167 17.2673 14.7764 17.2942 14.7425 17.3282C14.7085 17.3621 14.6816 17.4024 14.6631 17.4467C14.6447 17.491 14.6353 17.5386 14.6353 17.5866C14.6353 17.6346 14.6447 17.6821 14.6631 17.7264C14.6816 17.7707 14.7085 17.811 14.7425 17.8449L16.6916 19.7936C16.8972 19.9988 17.1758 20.114 17.4663 20.114C17.7569 20.114 18.0355 19.9988 18.2411 19.7936L23.2789 14.7568C23.3129 14.723 23.3398 14.6827 23.3582 14.6385C23.3766 14.5942 23.386 14.5467 23.386 14.4987C23.386 14.4508 23.3766 14.4033 23.3582 14.359C23.3398 14.3147 23.3129 14.2745 23.2789 14.2406C23.245 14.2066 23.2048 14.1796 23.1604 14.1612C23.1161 14.1428 23.0686 14.1333 23.0206 14.1333C22.9726 14.1333 22.9251 14.1428 22.8807 14.1612C22.8364 14.1796 22.7962 14.2066 22.7623 14.2406Z" fill="white"/>
</g>
<defs>
<clipPath id="clip0_5032_5162">
<rect width="8.75" height="8.75" fill="white" transform="translate(14.625 12.625)"/>
</clipPath>
</defs>
</svg>
