<svg width="16" height="16" viewBox="0 0 16 16" fill="none" xmlns="http://www.w3.org/2000/svg">
<path d="M1.98004 8.61333C1.78321 8.73159 1.62026 8.89867 1.50697 9.09839C1.39367 9.29812 1.33388 9.52371 1.33337 9.75333V11.9133C1.33388 12.143 1.39367 12.3686 1.50697 12.5683C1.62026 12.768 1.78321 12.9351 1.98004 13.0533L3.98004 14.2533C4.18742 14.3779 4.42478 14.4437 4.66671 14.4437C4.90863 14.4437 5.146 14.3779 5.35337 14.2533L8.00004 12.6667V9L4.66671 7L1.98004 8.61333Z" stroke="white" stroke-width="1.33333" stroke-linecap="round" stroke-linejoin="round"/>
<path d="M4.66671 11L1.50671 9.10001" stroke="white" stroke-width="1.33333" stroke-linecap="round" stroke-linejoin="round"/>
<path d="M4.66663 11L7.99996 9" stroke="white" stroke-width="1.33333" stroke-linecap="round" stroke-linejoin="round"/>
<path d="M4.66663 11V14.4467" stroke="white" stroke-width="1.33333" stroke-linecap="round" stroke-linejoin="round"/>
<path d="M8 9V12.6667L10.6467 14.2533C10.854 14.3779 11.0914 14.4437 11.3333 14.4437C11.5753 14.4437 11.8126 14.3779 12.02 14.2533L14.02 13.0533C14.2168 12.9351 14.3798 12.768 14.4931 12.5683C14.6064 12.3686 14.6662 12.143 14.6667 11.9133V9.75333C14.6662 9.52371 14.6064 9.29812 14.4931 9.09839C14.3798 8.89867 14.2168 8.73159 14.02 8.61333L11.3333 7L8 9Z" stroke="white" stroke-width="1.33333" stroke-linecap="round" stroke-linejoin="round"/>
<path d="M11.3333 11L8 9" stroke="white" stroke-width="1.33333" stroke-linecap="round" stroke-linejoin="round"/>
<path d="M11.3334 11L14.4934 9.10001" stroke="white" stroke-width="1.33333" stroke-linecap="round" stroke-linejoin="round"/>
<path d="M11.3334 11V14.4467" stroke="white" stroke-width="1.33333" stroke-linecap="round" stroke-linejoin="round"/>
<path d="M5.31329 2.94666C5.11646 3.06491 4.95351 3.23199 4.84022 3.43172C4.72692 3.63144 4.66713 3.85704 4.66663 4.08666V6.99999L7.99996 8.99999L11.3333 6.99999V4.08666C11.3328 3.85704 11.273 3.63144 11.1597 3.43172C11.0464 3.23199 10.8835 3.06491 10.6866 2.94666L8.68663 1.74666C8.47925 1.62207 8.24188 1.55624 7.99996 1.55624C7.75803 1.55624 7.52067 1.62207 7.31329 1.74666L5.31329 2.94666Z" stroke="white" stroke-width="1.33333" stroke-linecap="round" stroke-linejoin="round"/>
<path d="M7.99997 5.33332L4.83997 3.43332" stroke="white" stroke-width="1.33333" stroke-linecap="round" stroke-linejoin="round"/>
<path d="M8 5.33332L11.16 3.43332" stroke="white" stroke-width="1.33333" stroke-linecap="round" stroke-linejoin="round"/>
<path d="M8 9.00001V5.33334" stroke="white" stroke-width="1.33333" stroke-linecap="round" stroke-linejoin="round"/>
</svg>
