<svg width="20" height="20" viewBox="0 0 20 20" fill="none" xmlns="http://www.w3.org/2000/svg">
<path d="M19.6028 9.42416C18.8181 7.77103 17.8844 6.42282 16.8015 5.37951L15.6658 6.51523C16.5919 7.40027 17.3986 8.55809 18.0961 10C16.239 13.8438 13.6028 15.6697 10.0001 15.6697C8.91873 15.6697 7.92267 15.5032 7.01196 15.1701L5.78138 16.4007C7.04626 16.9848 8.45251 17.2768 10.0001 17.2768C14.2903 17.2768 17.4912 15.0425 19.6028 10.5737C19.6877 10.394 19.7317 10.1977 19.7317 9.99893C19.7317 9.80017 19.6877 9.60388 19.6028 9.42416ZM18.1838 2.26701L17.2323 1.31434C17.2157 1.29773 17.196 1.28456 17.1743 1.27557C17.1526 1.26659 17.1294 1.26196 17.1059 1.26196C17.0825 1.26196 17.0592 1.26659 17.0376 1.27557C17.0159 1.28456 16.9962 1.29773 16.9796 1.31434L14.5383 3.75451C13.1923 3.06701 11.6796 2.72326 10.0001 2.72326C5.70995 2.72326 2.50906 4.95764 0.39745 9.42639C0.312574 9.60611 0.268555 9.80241 0.268555 10.0012C0.268555 10.1999 0.312574 10.3962 0.39745 10.5759C1.24105 12.3527 2.25668 13.7769 3.44433 14.8485L1.08227 17.2099C1.04881 17.2434 1.03001 17.2888 1.03001 17.3361C1.03001 17.3834 1.04881 17.4288 1.08227 17.4623L2.03517 18.4152C2.06866 18.4487 2.11406 18.4675 2.1614 18.4675C2.20874 18.4675 2.25414 18.4487 2.28763 18.4152L18.1838 2.51969C18.2004 2.50311 18.2136 2.48341 18.2226 2.46174C18.2316 2.44006 18.2362 2.41682 18.2362 2.39335C18.2362 2.36989 18.2316 2.34665 18.2226 2.32497C18.2136 2.30329 18.2004 2.2836 18.1838 2.26701ZM1.90415 10C3.76352 6.1563 6.39968 4.33041 10.0001 4.33041C11.2175 4.33041 12.3245 4.53934 13.3287 4.96411L11.7595 6.53331C11.0164 6.1368 10.1654 5.98964 9.33228 6.11354C8.49913 6.23745 7.72786 6.62585 7.13225 7.22146C6.53665 7.81707 6.14824 8.58834 6.02434 9.42149C5.90043 10.2546 6.04759 11.1056 6.4441 11.8487L4.58205 13.7108C3.55147 12.8012 2.66308 11.5688 1.90415 10ZM7.41084 10C7.41123 9.60644 7.50447 9.21848 7.68297 8.86768C7.86146 8.51687 8.1202 8.21312 8.43815 7.9811C8.75609 7.74907 9.12429 7.59532 9.51282 7.53233C9.90136 7.46934 10.2993 7.49889 10.6742 7.61858L7.52937 10.7634C7.45055 10.5167 7.41056 10.2591 7.41084 10Z" fill="black"/>
<path d="M9.91074 12.5001C9.83351 12.5001 9.75739 12.4965 9.68195 12.4896L8.50293 13.6686C9.21206 13.9402 9.98467 14.0005 10.7274 13.8424C11.4701 13.6842 12.1511 13.3143 12.688 12.7774C13.2249 12.2404 13.5949 11.5594 13.753 10.8167C13.9112 10.074 13.8508 9.30142 13.5793 8.59229L12.4003 9.7713C12.4072 9.84675 12.4107 9.92287 12.4107 10.0001C12.4109 10.3285 12.3464 10.6536 12.2208 10.957C12.0952 11.2604 11.9111 11.5361 11.6789 11.7683C11.4467 12.0004 11.1711 12.1846 10.8677 12.3102C10.5643 12.4357 10.2391 12.5003 9.91074 12.5001Z" fill="black"/>
</svg>
